# Blender 4.2.3 LTS
# www.blender.org
mtllib untitled.mtl
o Cube
v -0.855029 0.000000 -0.354165
v -0.769506 0.000000 -0.514167
v -0.654411 0.000000 -0.654411
v -0.514167 0.000000 -0.769506
v -0.354165 0.000000 -0.855029
v -0.180552 0.000000 -0.907694
v 0.000000 0.000000 -0.925477
v -0.907694 0.000000 -0.180552
v -0.925477 0.000000 0.000000
v -0.907694 0.000000 0.180552
v -0.855029 0.000000 0.354165
v -0.769506 0.000000 0.514167
v -0.654411 0.000000 0.654411
v -0.514167 0.000000 0.769506
v -0.354165 0.000000 0.855029
v -0.180552 0.000000 0.907694
v 0.000000 0.000000 0.925477
v 0.180552 0.000000 0.907694
v 0.354165 0.000000 0.855029
v 0.514167 0.000000 0.769506
v 0.654411 0.000000 0.654411
v 0.769506 0.000000 0.514167
v 0.855029 0.000000 0.354165
v 0.907694 0.000000 0.180552
v 0.925477 0.000000 0.000000
v 0.907694 0.000000 -0.180552
v 0.855029 0.000000 -0.354165
v 0.769506 0.000000 -0.514167
v 0.654411 0.000000 -0.654411
v 0.514167 0.000000 -0.769506
v 0.354165 0.000000 -0.855029
v 0.180552 0.000000 -0.907694
v -0.694298 -0.005451 -0.290781
v -0.625397 -0.005451 -0.419685
v -0.532671 -0.005451 -0.532671
v -0.419685 -0.005451 -0.625397
v -0.290781 -0.005451 -0.694298
v -0.150911 -0.005451 -0.736727
v -0.005451 -0.005451 -0.751053
v -0.736727 -0.005451 -0.150911
v -0.751053 -0.005451 -0.005451
v -0.736727 -0.005451 0.140009
v -0.694298 -0.005451 0.279879
v -0.625397 -0.005451 0.408784
v -0.532671 -0.005451 0.521770
v -0.419685 -0.005451 0.614495
v -0.290781 -0.005451 0.683396
v -0.150911 -0.005451 0.725825
v -0.005451 -0.005451 0.740152
v 0.140009 -0.005451 0.725825
v 0.279879 -0.005451 0.683396
v 0.408784 -0.005451 0.614495
v 0.521770 -0.005451 0.521770
v 0.614495 -0.005451 0.408784
v 0.683396 -0.005451 0.279879
v 0.725825 -0.005451 0.140009
v 0.740152 -0.005451 -0.005451
v 0.725825 -0.005451 -0.150911
v 0.683396 -0.005451 -0.290781
v 0.614495 -0.005451 -0.419685
v 0.521770 -0.005451 -0.532671
v 0.408784 -0.005451 -0.625397
v 0.279879 -0.005451 -0.694298
v 0.140009 -0.005451 -0.736727
vn 0.0234 -0.9995 -0.0192
vn -0.0087 -0.9996 0.0285
vn -0.0311 -0.9995 0.0031
vn 0.0194 -0.9995 -0.0236
vn -0.0029 -0.9996 0.0295
vn -0.0236 -0.9995 0.0194
vn 0.0145 -0.9995 -0.0272
vn 0.0029 -0.9996 0.0293
vn -0.0092 -0.9995 -0.0303
vn 0.0090 -0.9995 -0.0297
vn 0.0085 -0.9996 0.0281
vn -0.0303 -0.9995 -0.0092
vn 0.0031 -0.9995 -0.0311
vn 0.0138 -0.9996 0.0258
vn -0.0202 -0.9995 -0.0246
vn 0.0185 -0.9996 0.0226
vn -0.0280 -0.9995 -0.0150
vn 0.0226 -0.9996 0.0185
vn -0.0272 -0.9995 0.0145
vn 0.0258 -0.9996 0.0138
vn -0.0246 -0.9995 -0.0202
vn 0.0281 -0.9996 0.0085
vn -0.0150 -0.9995 -0.0280
vn 0.0293 -0.9996 0.0029
vn -0.0297 -0.9995 0.0090
vn 0.0295 -0.9996 -0.0029
vn -0.0313 -0.9995 -0.0031
vn 0.0285 -0.9996 -0.0087
vn -0.0192 -0.9995 0.0234
vn 0.0265 -0.9995 -0.0142
vn -0.0142 -0.9995 0.0265
vn -0.0031 -0.9995 -0.0313
vt 0.000000 0.000000
s 0
usemtl Material
f 29/1/1 60/1/1 61/1/1
f 15/1/2 48/1/2 16/1/2
f 9/1/3 42/1/3 10/1/3
f 30/1/4 61/1/4 62/1/4
f 16/1/5 49/1/5 17/1/5
f 12/1/6 45/1/6 13/1/6
f 31/1/7 62/1/7 63/1/7
f 17/1/8 50/1/8 18/1/8
f 5/1/9 38/1/9 37/1/9
f 32/1/10 63/1/10 64/1/10
f 18/1/11 51/1/11 19/1/11
f 1/1/12 40/1/12 8/1/12
f 7/1/13 64/1/13 39/1/13
f 19/1/14 52/1/14 20/1/14
f 3/1/15 36/1/15 35/1/15
f 20/1/16 53/1/16 21/1/16
f 2/1/17 33/1/17 1/1/17
f 22/1/18 53/1/18 54/1/18
f 11/1/19 44/1/19 12/1/19
f 23/1/20 54/1/20 55/1/20
f 3/1/21 34/1/21 2/1/21
f 24/1/22 55/1/22 56/1/22
f 4/1/23 37/1/23 36/1/23
f 25/1/24 56/1/24 57/1/24
f 10/1/25 43/1/25 11/1/25
f 26/1/26 57/1/26 58/1/26
f 8/1/27 41/1/27 9/1/27
f 27/1/28 58/1/28 59/1/28
f 13/1/29 46/1/29 14/1/29
f 28/1/30 59/1/30 60/1/30
f 14/1/31 47/1/31 15/1/31
f 6/1/32 39/1/32 38/1/32
f 29/1/1 28/1/1 60/1/1
f 15/1/2 47/1/2 48/1/2
f 9/1/3 41/1/3 42/1/3
f 30/1/4 29/1/4 61/1/4
f 16/1/5 48/1/5 49/1/5
f 12/1/6 44/1/6 45/1/6
f 31/1/7 30/1/7 62/1/7
f 17/1/8 49/1/8 50/1/8
f 5/1/9 6/1/9 38/1/9
f 32/1/10 31/1/10 63/1/10
f 18/1/11 50/1/11 51/1/11
f 1/1/12 33/1/12 40/1/12
f 7/1/13 32/1/13 64/1/13
f 19/1/14 51/1/14 52/1/14
f 3/1/15 4/1/15 36/1/15
f 20/1/16 52/1/16 53/1/16
f 2/1/17 34/1/17 33/1/17
f 22/1/18 21/1/18 53/1/18
f 11/1/19 43/1/19 44/1/19
f 23/1/20 22/1/20 54/1/20
f 3/1/21 35/1/21 34/1/21
f 24/1/22 23/1/22 55/1/22
f 4/1/23 5/1/23 37/1/23
f 25/1/24 24/1/24 56/1/24
f 10/1/25 42/1/25 43/1/25
f 26/1/26 25/1/26 57/1/26
f 8/1/27 40/1/27 41/1/27
f 27/1/28 26/1/28 58/1/28
f 13/1/29 45/1/29 46/1/29
f 28/1/30 27/1/30 59/1/30
f 14/1/31 46/1/31 47/1/31
f 6/1/32 7/1/32 39/1/32
